<?xml version="1.0" standalone="no"?>
<!DOCTYPE svg PUBLIC "-//W3C//DTD SVG 20010904//EN"
 "http://www.w3.org/TR/2001/REC-SVG-20010904/DTD/svg10.dtd">
<svg version="1.0" xmlns="http://www.w3.org/2000/svg"
 width="512.000000pt" height="512.000000pt" viewBox="0 0 512.000000 512.000000"
 preserveAspectRatio="xMidYMid meet">
<metadata>
Created by potrace 1.11, written by Peter Selinger 2001-2013
</metadata>
<g transform="translate(0.000000,512.000000) scale(0.100000,-0.100000)"
fill="#000000" stroke="none">
<path d="M2313 4622 c-27 -41 -269 -406 -878 -1327 -87 -132 -305 -460 -483
-730 -446 -672 -495 -747 -496 -761 -1 -7 143 -114 319 -240 524 -373 615
-438 656 -466 139 -97 525 -373 529 -377 3 -3 13 -10 22 -16 9 -5 90 -62 180
-126 90 -64 169 -119 176 -123 10 -6 12 414 12 2103 0 1161 -1 2111 -3 2111
-1 0 -16 -21 -34 -48z"/>
<path d="M2770 2562 c0 -2009 1 -2112 18 -2102 9 6 44 29 77 53 88 62 954 679
1062 756 51 36 115 82 143 101 28 19 59 42 70 50 10 8 134 96 274 195 140 99
254 185 252 190 -2 6 -151 233 -331 505 -181 272 -426 644 -546 825 -120 182
-221 335 -226 340 -5 6 -24 35 -43 65 -19 30 -38 57 -42 58 -5 2 -8 7 -8 12 0
5 -71 116 -158 247 -87 131 -245 368 -350 527 l-192 290 0 -2112z"/>
</g>
</svg>
