<?xml version="1.0" standalone="no"?>
<!DOCTYPE svg PUBLIC "-//W3C//DTD SVG 20010904//EN"
 "http://www.w3.org/TR/2001/REC-SVG-20010904/DTD/svg10.dtd">
<svg version="1.0" xmlns="http://www.w3.org/2000/svg"
 width="980.000000pt" height="980.000000pt" viewBox="0 0 980.000000 980.000000"
 preserveAspectRatio="xMidYMid meet">
<metadata>
Created by potrace 1.11, written by Peter Selinger 2001-2013
</metadata>
<g transform="translate(0.000000,980.000000) scale(0.100000,-0.100000)"
fill="#000000" stroke="none">
<path d="M4575 8019 c-120 -8 -365 -41 -489 -65 -84 -17 -248 -71 -541 -178
-239 -88 -579 -185 -675 -193 -91 -7 -108 -15 -126 -58 -8 -19 -23 -39 -33
-45 -13 -6 -137 -10 -335 -10 -208 0 -317 -4 -321 -10 -11 -18 13 -37 60 -50
50 -14 53 -20 28 -42 -49 -43 -81 -49 -256 -54 -94 -2 -181 -7 -192 -10 -33
-10 -55 -36 -55 -64 0 -62 65 -84 296 -100 93 -7 175 -14 182 -16 10 -3 6 -17
-15 -53 -21 -38 -47 -62 -108 -102 -44 -29 -101 -63 -127 -76 -55 -28 -74 -54
-58 -82 12 -24 25 -28 123 -36 52 -5 77 -11 77 -19 0 -21 -109 -73 -285 -137
l-166 -59 -237 -22 -237 -22 -156 23 c-85 12 -198 31 -250 42 -124 27 -227 28
-271 2 -62 -36 -40 -93 37 -93 70 0 135 -12 135 -25 0 -23 -132 -45 -274 -45
-124 0 -136 -2 -146 -19 -13 -25 -13 -33 3 -55 9 -13 38 -21 100 -29 48 -7 88
-16 88 -22 1 -16 -109 -54 -206 -71 -50 -9 -101 -23 -113 -31 -22 -14 -23 -16
-7 -33 35 -38 92 -44 324 -32 119 7 268 12 332 12 134 0 173 10 370 91 334
138 588 231 667 245 90 16 177 50 229 90 18 13 56 36 85 49 50 23 64 25 213
24 156 0 248 -8 263 -23 4 -4 9 -57 12 -118 l5 -110 38 -32 39 -32 -7 -90 c-7
-83 -6 -91 16 -118 12 -16 37 -35 55 -42 48 -20 56 -42 44 -116 -16 -103 20
-183 100 -215 42 -18 50 -28 50 -69 0 -66 41 -141 99 -179 39 -26 52 -56 45
-109 -9 -62 20 -118 100 -196 71 -68 86 -100 84 -178 -1 -52 18 -75 78 -98
l44 -17 0 -52 c0 -63 20 -92 97 -142 69 -44 78 -66 52 -132 -36 -95 -23 -156
51 -237 46 -50 55 -78 74 -228 14 -109 18 -123 48 -160 33 -41 33 -41 39 -181
6 -151 13 -178 66 -226 15 -15 43 -34 61 -43 55 -28 72 -51 72 -100 0 -104 51
-249 108 -309 29 -30 92 -67 115 -67 28 0 67 -41 67 -70 0 -49 37 -151 76
-207 54 -79 101 -103 201 -103 53 0 84 -4 91 -13 7 -9 8 -36 1 -87 -11 -89 -6
-151 23 -243 23 -75 51 -103 91 -93 13 3 61 39 105 81 70 63 88 75 117 75 l35
0 0 -165 c0 -163 0 -166 25 -190 32 -33 84 -33 120 -2 15 13 45 70 74 140 51
122 75 167 90 167 7 0 15 -55 37 -276 6 -59 53 -146 96 -178 22 -16 33 -18 55
-10 59 20 74 67 103 314 13 105 29 140 64 140 38 0 54 -28 61 -115 10 -122 32
-247 55 -309 48 -127 159 -143 174 -24 3 24 7 138 10 253 4 198 14 287 37 363
6 17 14 32 18 32 4 0 15 -51 25 -113 50 -317 58 -346 102 -366 32 -14 56 -14
88 1 72 32 79 104 66 747 -11 591 -22 726 -91 1176 -27 176 -49 328 -49 339 0
15 5 13 35 -13 39 -34 43 -35 78 -22 37 14 47 59 47 210 0 80 5 142 11 151 6
9 13 11 15 5 3 -5 46 -91 97 -190 104 -204 121 -221 184 -191 50 24 56 50 48
219 -3 81 -4 147 -1 147 4 0 26 -30 50 -67 24 -38 53 -77 65 -88 29 -26 92
-26 120 -1 28 26 27 65 -8 177 -31 103 -62 271 -86 479 -39 327 -102 636 -196
955 -85 287 -147 531 -155 610 l-7 68 278 -6 c389 -9 552 16 624 98 39 44 47
93 32 180 -23 127 -24 144 -10 192 23 86 168 200 308 243 88 28 165 28 453 0
l247 -23 103 27 103 28 625 -7 c537 -7 630 -6 654 7 50 26 37 31 -333 108
-170 36 -313 51 -551 56 l-235 6 -120 53 c-66 29 -160 65 -210 80 -49 15 -139
42 -200 60 -262 80 -327 86 -540 56 -85 -12 -232 -24 -340 -27 -172 -6 -198
-9 -276 -34 -62 -21 -122 -31 -220 -39 -171 -14 -513 -30 -695 -33 l-142 -3
-73 51 c-139 97 -289 160 -443 189 -170 31 -557 43 -821 24z m2522 -283 c-14
-11 -56 -46 -92 -76 -132 -108 -203 -229 -217 -364 -11 -107 -27 -143 -76
-163 -56 -23 -172 -14 -246 20 -124 57 -215 146 -278 272 -47 93 -118 195
-167 239 -12 11 -21 22 -21 25 0 3 162 4 361 2 389 -3 440 1 631 48 62 16 117
26 122 24 4 -3 -3 -15 -17 -27z"/>
</g>
</svg>
